<?xml version="1.0" standalone="no"?>
<!DOCTYPE svg PUBLIC "-//W3C//DTD SVG 20010904//EN"
 "http://www.w3.org/TR/2001/REC-SVG-20010904/DTD/svg10.dtd">
<svg version="1.0" xmlns="http://www.w3.org/2000/svg"
 width="1024.000000pt" height="1024.000000pt" viewBox="0 0 1024.000000 1024.000000"
 preserveAspectRatio="xMidYMid meet">
<metadata>
Created by potrace 1.11, written by Peter Selinger 2001-2013
</metadata>
<g transform="translate(0.000000,1024.000000) scale(0.100000,-0.100000)"
fill="#000000" stroke="none">
<path d="M5045 9383 c-588 -17 -1149 -204 -1625 -543 -330 -235 -627 -556
-840 -910 -211 -350 -350 -745 -416 -1183 -21 -139 -30 -536 -15 -663 37 -310
137 -620 315 -974 173 -344 354 -623 806 -1245 307 -421 452 -640 534 -803
l36 -72 0 -1070 0 -1070 308 0 c284 0 308 -1 318 -18 37 -58 143 -177 201
-225 288 -235 618 -235 906 0 59 49 159 161 204 230 l15 23 304 0 304 0 0
1067 0 1066 51 95 c105 194 220 366 544 812 489 672 683 982 863 1380 192 424
260 763 240 1196 -74 1654 -1437 2952 -3053 2907z"/>
</g>
</svg>
